<svg width="62" height="62" viewBox="0 0 62 62" fill="none" xmlns="http://www.w3.org/2000/svg">
<path d="M39.1246 0.377319C26.9139 0.377319 17.0126 10.2786 17.0126 22.4958C17.0126 34.7065 26.9139 44.6078 39.1246 44.6078C51.3418 44.6078 61.2431 34.7065 61.2431 22.4958C61.2431 10.2786 51.3418 0.377319 39.1246 0.377319Z" fill="#D28147"/>
<path d="M22.1184 17.392C9.9013 17.392 0 27.2933 0 39.504C0 51.7212 9.9013 61.6225 22.1184 61.6225C34.3292 61.6225 44.2305 51.7212 44.2305 39.504C44.2305 27.2933 34.3292 17.392 22.1184 17.392Z" fill="#F6B059"/>
<path d="M19.5678 34.3995C17.2136 34.3995 15.3125 36.3071 15.3125 38.6548C15.3125 41.0025 17.2136 42.9101 19.5678 42.9101C21.9155 42.9101 23.8166 41.0025 23.8166 38.6548C23.8166 36.3071 21.9155 34.3995 19.5678 34.3995ZM22.9681 24.192C21.5582 24.192 20.4163 25.334 20.4163 26.7439C20.4163 28.1538 21.5582 29.2958 22.9681 29.2958C24.3781 29.2958 25.52 28.1538 25.52 26.7439C25.52 25.334 24.3781 24.192 22.9681 24.192ZM28.9204 44.6071C27.0448 44.6071 25.52 46.1318 25.52 48.0138C25.52 49.8895 27.0448 51.4142 28.9204 51.4142C30.8024 51.4142 32.3272 49.8895 32.3272 48.0138C32.3272 46.1318 30.8024 44.6071 28.9204 44.6071ZM9.36023 39.5033C7.95032 39.5033 6.80835 40.6453 6.80835 42.0552C6.80835 43.4651 7.95032 44.6071 9.36023 44.6071C10.7701 44.6071 11.9121 43.4651 11.9121 42.0552C11.9121 40.6453 10.7701 39.5033 9.36023 39.5033ZM33.1757 34.3995C31.7658 34.3995 30.6238 35.5415 30.6238 36.9514C30.6238 38.3613 31.7658 39.5033 33.1757 39.5033C34.5856 39.5033 35.7276 38.3613 35.7276 36.9514C35.7276 35.5415 34.5856 34.3995 33.1757 34.3995ZM17.0159 49.7108C16.0717 49.7108 15.3125 50.4764 15.3125 51.4142C15.3125 52.352 16.0717 53.1176 17.0159 53.1176C17.9537 53.1176 18.7129 52.352 18.7129 51.4142C18.7129 50.4764 17.9537 49.7108 17.0159 49.7108Z" fill="#6D420D"/>
<path d="M34.0236 7.18532C32.1479 7.18532 30.6232 8.70368 30.6232 10.5857C30.6232 12.4677 32.1479 13.9861 34.0236 13.9861C35.9056 13.9861 37.4303 12.4677 37.4303 10.5857C37.4303 8.70368 35.9056 7.18532 34.0236 7.18532ZM43.3826 15.6895C41.9727 15.6895 40.8307 16.8314 40.8307 18.2413C40.8307 19.6513 41.9727 20.7932 43.3826 20.7932C44.7925 20.7932 45.9345 19.6513 45.9345 18.2413C45.9345 16.8314 44.7925 15.6895 43.3826 15.6895ZM45.0796 5.48193C43.6697 5.48193 42.5277 6.6239 42.5277 8.03382C42.5277 9.44373 43.6697 10.5857 45.0796 10.5857C46.4895 10.5857 47.6315 9.44373 47.6315 8.03382C47.6315 6.6239 46.4895 5.48193 45.0796 5.48193ZM51.0382 24.1936C50.1004 24.1936 49.3348 24.9592 49.3348 25.897C49.3348 26.8348 50.1004 27.6004 51.0382 27.6004C51.976 27.6004 52.7416 26.8348 52.7416 25.897C52.7416 24.9592 51.976 24.1936 51.0382 24.1936Z" fill="#7A441D"/>
</svg>
