<svg width="123" height="24" viewBox="0 0 123 24" fill="none" xmlns="http://www.w3.org/2000/svg">
<path d="M65.3584 19.7342V4.70044H74.8537V8.18936H69.3153V19.7342H65.3584Z" fill="white"/>
<path d="M86.7952 19.7342V13.8463H80.9132V19.7342H76.9563V4.70044H80.9132V10.31H86.7952V4.70044H90.752V19.7342H86.7952Z" fill="white"/>
<path d="M113.723 19.7342V8.18936H109.097V4.70044H122.324V8.18936H117.68V19.7342H113.723Z" fill="white"/>
<path d="M103.274 19.7342V11.1629L96.9717 19.7342H93.6605V4.70044H97.6233V13.1769L103.813 4.70044H107.231V19.7342H103.274Z" fill="white"/>
<path d="M42.6122 19.7342V10.7957L38.6612 15.5167L34.7103 10.7957V19.7342H30.7534V4.70044H34.657L38.6612 9.87162L42.6655 4.70044H46.5691V19.7342H42.6122Z" fill="white"/>
<path d="M54.0857 14.4445H57.7642L55.922 9.70576L54.0857 14.4445ZM59.8255 19.7342L59.0022 17.6254H52.8418L52.0243 19.7342H48.0378L54.1508 4.70044H57.8115L63.8949 19.7342H59.8255Z" fill="white"/>
<path d="M0.101807 7.75262C0.101807 5.92772 0.811506 4.20947 2.10671 2.9119C3.40191 1.61432 5.11702 0.90332 6.93858 0.90332H22.7294V4.38722H6.93858C6.04554 4.38722 5.20573 4.7368 4.567 5.3767C3.92827 6.0166 3.57933 6.86387 3.57933 7.75855L3.55568 13.6065C3.396 15.1589 2.22499 16.4091 0.716879 16.6401L0.101807 16.729V7.75262Z" fill="white"/>
<path d="M0.10144 23.5311V20.0472H15.8923C16.7853 20.0472 17.631 19.6917 18.2638 19.0578C18.9026 18.4179 19.2515 17.5765 19.2515 16.6818L19.2574 11.136C19.2574 9.48295 20.4876 8.0491 22.114 7.80024L22.729 7.70544V16.6818C22.729 18.5067 22.0134 20.225 20.7241 21.5226C19.4289 22.8201 17.7138 23.5311 15.8923 23.5311H0.10144Z" fill="white"/>
<path d="M13.4735 16.7408V12.2437L11.4154 14.7026L9.35729 12.2437V16.7408H6.63086V7.88293H9.21535L11.4154 10.7329L13.6214 7.88293H16.2V16.7408H13.4735Z" fill="white"/>
</svg>
