<svg width="9" height="10" viewBox="0 0 9 10" fill="none" xmlns="http://www.w3.org/2000/svg">
<path fill-rule="evenodd" clip-rule="evenodd" d="M6.7501 2.75C6.92664 2.51497 7.03125 2.22283 7.03125 1.90625C7.03125 1.1296 6.40165 0.5 5.625 0.5C5.16499 0.5 4.75656 0.720879 4.5 1.06236C4.24344 0.720879 3.83501 0.5 3.375 0.5C2.59835 0.5 1.96875 1.1296 1.96875 1.90625C1.96875 2.22283 2.07336 2.51497 2.2499 2.75H0.703125C0.3148 2.75 0 3.0648 0 3.45312V3.73438C0 4.1227 0.3148 4.4375 0.703125 4.4375H4.07812V2.75H4.92188V4.4375H8.29688C8.6852 4.4375 9 4.1227 9 3.73438V3.45312C9 3.0648 8.6852 2.75 8.29688 2.75H6.7501ZM6.1875 1.90625C6.1875 2.21691 5.93566 2.46875 5.625 2.46875H5.0625L5.0625 1.90625C5.0625 1.59559 5.31434 1.34375 5.625 1.34375C5.93566 1.34375 6.1875 1.59559 6.1875 1.90625ZM2.8125 1.90625C2.8125 2.21691 3.06434 2.46875 3.375 2.46875H3.9375V1.90625C3.9375 1.59559 3.68566 1.34375 3.375 1.34375C3.06434 1.34375 2.8125 1.59559 2.8125 1.90625Z" fill="white"/>
<path d="M4.07812 5.28125H0.5625V7.95312C0.5625 8.80744 1.25506 9.5 2.10938 9.5H4.07812V5.28125Z" fill="white"/>
<path d="M4.92188 9.5V5.28125H8.4375V7.95312C8.4375 8.80744 7.74494 9.5 6.89062 9.5H4.92188Z" fill="white"/>
</svg>
